<svg width="313" height="290" viewBox="0 0 313 290" fill="none" xmlns="http://www.w3.org/2000/svg">
<mask id="mask0_658_89" style="mask-type:alpha" maskUnits="userSpaceOnUse" x="0" y="0" width="313" height="290">
<path d="M162.831 31.0547C155.629 37.9599 148.119 33.4776 145.264 30.3733C125.281 15.8361 127.477 16.0633 106.835 4.93332C86.1935 -6.19668 33.9306 -1.19954 11.5322 48.3176C-10.8662 97.8347 0.991743 142.355 33.0522 190.963C65.1127 239.572 136.919 282.729 147.021 288.407C157.122 294.086 180.838 285 217.949 254.336C255.06 223.672 291.951 183.467 306.884 137.812C321.816 92.1561 307.762 46.0461 282.509 23.3319C257.256 0.617586 237.712 -0.972414 216.192 1.07187C194.672 3.11616 171.834 22.4233 162.831 31.0547Z" fill="#59FAF6"/>
</mask>
<g mask="url(#mask0_658_89)">
<path d="M163.609 30.9746C156.406 37.8798 148.896 33.3975 146.041 30.2932C126.058 15.7561 128.254 15.9832 107.612 4.85324C86.9708 -6.27675 34.7079 -1.27961 12.3095 48.2375C-10.0889 97.7546 1.76909 142.275 33.8295 190.883C65.89 239.492 137.697 282.649 147.798 288.327C157.899 294.006 181.615 284.92 218.726 254.256C255.837 223.592 292.729 183.387 307.661 137.732C322.593 92.076 308.539 45.9661 283.286 23.2518C258.033 0.537508 238.489 -1.05249 216.969 0.991793C195.449 3.03608 172.612 22.3432 163.609 30.9746Z" fill="url(#paint0_linear_658_89)"/>
<g filter="url(#filter0_f_658_89)">
<path d="M132.195 288.47C334.001 139.237 247.354 31.1151 172.957 0.735516C205.678 -31.8477 247.226 -14.9034 261.226 -8.37551C324.96 20.2466 340.588 86.0271 309.087 160.595C277.587 235.163 187.969 288.39 168.678 299.437C153.245 308.275 132.195 293.921 132.195 288.47Z" fill="url(#paint1_linear_658_89)"/>
</g>
<g filter="url(#filter1_f_658_89)">
<ellipse cx="84.9816" cy="138.558" rx="95.5226" ry="84.4971" fill="#2FA8FB"/>
</g>
<g filter="url(#filter2_f_658_89)">
<path d="M204.151 133.857C208.781 88.6303 181.81 49.0193 167.746 34.8671C169.178 34.3374 174.131 31.0528 182.495 22.1529C190.859 13.2529 197.679 9.51429 200.044 8.75749C204.587 5.20052 220.841 14.2973 249.517 79.14C285.362 160.193 209.939 230.803 185.669 268.038C166.253 297.825 151.815 285.141 147.023 275.076C164.137 246.847 199.521 179.083 204.151 133.857Z" fill="#DA30EF"/>
</g>
<g filter="url(#filter3_f_658_89)">
<path d="M158.304 295.739C72.9416 245.99 24.2277 174.462 10.541 144.916L161.181 274.635L158.304 295.739Z" fill="#A73FBC"/>
</g>
<g filter="url(#filter4_f_658_89)">
<path d="M305.789 157.335C336.356 72.6558 292.906 26.6518 267.36 14.2347C264.022 10.6004 251.915 4.99753 246.279 2.65039C262.266 4.28582 279.145 14.0832 285.586 18.7775C344.291 73.9957 320.122 144.969 297.878 178.398C296.645 180.721 295.378 182.608 294.15 183.683C295.377 182.047 296.624 180.282 297.878 178.398C301.232 172.081 304.344 162.538 305.789 157.335Z" fill="url(#paint2_linear_658_89)" fill-opacity="0.65"/>
</g>
<g filter="url(#filter5_f_658_89)">
<path d="M-4.27099e-09 95.777C0.000494849 57.1628 24.0521 20.5928 41.6202 13.3242C-3.52805 68.3836 52.4527 185.726 62.4807 214.118C25.3697 175.958 -0.000494843 134.391 -4.27099e-09 95.777Z" fill="url(#paint3_linear_658_89)"/>
</g>
<g filter="url(#filter6_f_658_89)">
<path d="M-4.33609e-09 103.245C0.000496074 64.042 24.1113 26.9145 41.7225 19.5352C-3.53673 75.4339 8.77605 141.987 18.8288 170.812C13.619 166.508 -0.000496052 142.448 -4.33609e-09 103.245Z" fill="url(#paint4_linear_658_89)"/>
</g>
<g style="mix-blend-mode:overlay" filter="url(#filter7_f_658_89)">
<path d="M45.6161 96.0038C40.1703 95.0952 32.6602 98.0481 29.5859 99.6381C26.4238 59.6609 52.2771 41.3381 65.599 37.1738C56.8154 43.1704 57.4009 56.7838 58.7917 62.841C47.8999 71.5632 45.4698 88.5838 45.6161 96.0038Z" fill="url(#paint5_linear_658_89)"/>
<path d="M45.6161 96.0038C40.1703 95.0952 32.6602 98.0481 29.5859 99.6381C26.4238 59.6609 52.2771 41.3381 65.599 37.1738C56.8154 43.1704 57.4009 56.7838 58.7917 62.841C47.8999 71.5632 45.4698 88.5838 45.6161 96.0038Z" fill="url(#paint6_linear_658_89)"/>
</g>
<g style="mix-blend-mode:overlay" filter="url(#filter8_f_658_89)">
<path d="M45.1716 95.1533L33.5653 97.2876C30.6766 69.3285 50.0904 51.0136 60.0632 43.9883C56.9682 50.6046 57.456 60.0843 58.7455 62.8411C47.3268 73.9711 45.7734 87.1498 45.1716 95.1533Z" fill="url(#paint7_linear_658_89)"/>
<path d="M45.1716 95.1533L33.5653 97.2876C30.6766 69.3285 50.0904 51.0136 60.0632 43.9883C56.9682 50.6046 57.456 60.0843 58.7455 62.8411C47.3268 73.9711 45.7734 87.1498 45.1716 95.1533Z" fill="url(#paint8_linear_658_89)"/>
</g>
<g style="mix-blend-mode:overlay" filter="url(#filter9_f_658_89)">
<path d="M44.6298 95.5759L36.1325 97.1384C34.0177 76.6688 47.4999 61.8505 54.8013 56.707C52.5353 61.551 53.8571 66.0459 54.8013 68.0642C47.2481 75.877 45.0704 89.7162 44.6298 95.5759Z" fill="url(#paint9_linear_658_89)"/>
<path d="M44.6298 95.5759L36.1325 97.1384C34.0177 76.6688 47.4999 61.8505 54.8013 56.707C52.5353 61.551 53.8571 66.0459 54.8013 68.0642C47.2481 75.877 45.0704 89.7162 44.6298 95.5759Z" fill="url(#paint10_linear_658_89)"/>
</g>
<g style="mix-blend-mode:overlay">
<path d="M301.499 96.0826C303.783 36.2987 253.408 19.5355 227.936 18.627L227.936 30.8927C267.813 43.9761 281.736 77.0784 283.712 91.9941L301.499 96.0826Z" fill="url(#paint11_linear_658_89)"/>
<path d="M301.499 96.0826C303.783 36.2987 253.408 19.5355 227.936 18.627L227.936 30.8927C267.813 43.9761 281.736 77.0784 283.712 91.9941L301.499 96.0826Z" fill="url(#paint12_linear_658_89)"/>
</g>
<g style="mix-blend-mode:overlay">
<path d="M301.281 98.1241C294.079 92.1275 285.69 91.3855 282.396 91.7641C278.707 70.867 267.976 56.1027 263.072 51.3327C269.924 46.2447 269.44 36.7956 268.342 32.707C299.788 45.9722 303.404 81.8456 301.281 98.1241Z" fill="url(#paint13_linear_658_89)"/>
</g>
<g filter="url(#filter10_f_658_89)">
<path d="M192.192 59.4209C183.865 68.3997 176.488 72.3071 173.84 73.1385L164.254 61.4161C165.623 61.4993 169.732 60.219 175.21 54.4326C180.688 48.6463 196.665 39.0522 203.969 34.9785L215.199 44.2067C210.999 45.5369 200.518 50.442 192.192 59.4209Z" fill="url(#paint14_linear_658_89)" fill-opacity="0.2"/>
</g>
<g style="mix-blend-mode:overlay" filter="url(#filter11_f_658_89)">
<path d="M121.664 63.0662C101.989 48.529 85.7975 46.8633 80.1613 47.8476C73.31 33.8556 81.9912 25.209 87.1883 22.6348C118.151 27.859 119.468 36.7176 134.401 53.0719C146.346 66.1553 156.213 60.6433 159.654 56.2519L170.633 73.0604C158.117 87.5976 146.259 81.2376 121.664 63.0662Z" fill="url(#paint15_linear_658_89)"/>
</g>
<g filter="url(#filter12_f_658_89)">
<path d="M172.701 256.213C169.188 258.794 165.77 261.148 162.498 263.261C166.008 260.913 169.408 258.563 172.701 256.213C223.582 218.839 294.615 133.75 235.622 40.4336C268.01 75.2635 299.133 166.003 172.701 256.213Z" fill="#FF56C7"/>
</g>
</g>
<defs>
<filter id="filter0_f_658_89" x="67.365" y="-83.4573" width="322.307" height="450.534" filterUnits="userSpaceOnUse" color-interpolation-filters="sRGB">
<feFlood flood-opacity="0" result="BackgroundImageFix"/>
<feBlend mode="normal" in="SourceGraphic" in2="BackgroundImageFix" result="shape"/>
<feGaussianBlur stdDeviation="32.4152" result="effect1_foregroundBlur_658_89"/>
</filter>
<filter id="filter1_f_658_89" x="-120.6" y="-55.9989" width="411.164" height="389.113" filterUnits="userSpaceOnUse" color-interpolation-filters="sRGB">
<feFlood flood-opacity="0" result="BackgroundImageFix"/>
<feBlend mode="normal" in="SourceGraphic" in2="BackgroundImageFix" result="shape"/>
<feGaussianBlur stdDeviation="55.0297" result="effect1_foregroundBlur_658_89"/>
</filter>
<filter id="filter2_f_658_89" x="19.9957" y="-118.93" width="366.048" height="532.532" filterUnits="userSpaceOnUse" color-interpolation-filters="sRGB">
<feFlood flood-opacity="0" result="BackgroundImageFix"/>
<feBlend mode="normal" in="SourceGraphic" in2="BackgroundImageFix" result="shape"/>
<feGaussianBlur stdDeviation="63.5139" result="effect1_foregroundBlur_658_89"/>
</filter>
<filter id="filter3_f_658_89" x="-43.4648" y="90.9102" width="258.652" height="258.834" filterUnits="userSpaceOnUse" color-interpolation-filters="sRGB">
<feFlood flood-opacity="0" result="BackgroundImageFix"/>
<feBlend mode="normal" in="SourceGraphic" in2="BackgroundImageFix" result="shape"/>
<feGaussianBlur stdDeviation="27.0029" result="effect1_foregroundBlur_658_89"/>
</filter>
<filter id="filter4_f_658_89" x="242.301" y="-1.32837" width="83.9263" height="188.991" filterUnits="userSpaceOnUse" color-interpolation-filters="sRGB">
<feFlood flood-opacity="0" result="BackgroundImageFix"/>
<feBlend mode="normal" in="SourceGraphic" in2="BackgroundImageFix" result="shape"/>
<feGaussianBlur stdDeviation="1.98938" result="effect1_foregroundBlur_658_89"/>
</filter>
<filter id="filter5_f_658_89" x="-24.7502" y="-11.426" width="111.981" height="250.295" filterUnits="userSpaceOnUse" color-interpolation-filters="sRGB">
<feFlood flood-opacity="0" result="BackgroundImageFix"/>
<feBlend mode="normal" in="SourceGraphic" in2="BackgroundImageFix" result="shape"/>
<feGaussianBlur stdDeviation="12.3751" result="effect1_foregroundBlur_658_89"/>
</filter>
<filter id="filter6_f_658_89" x="-23.4045" y="-3.8693" width="88.5316" height="198.086" filterUnits="userSpaceOnUse" color-interpolation-filters="sRGB">
<feFlood flood-opacity="0" result="BackgroundImageFix"/>
<feBlend mode="normal" in="SourceGraphic" in2="BackgroundImageFix" result="shape"/>
<feGaussianBlur stdDeviation="11.7022" result="effect1_foregroundBlur_658_89"/>
</filter>
<filter id="filter7_f_658_89" x="27.0384" y="34.8919" width="40.8432" height="67.0287" filterUnits="userSpaceOnUse" color-interpolation-filters="sRGB">
<feFlood flood-opacity="0" result="BackgroundImageFix"/>
<feBlend mode="normal" in="SourceGraphic" in2="BackgroundImageFix" result="shape"/>
<feGaussianBlur stdDeviation="1.14097" result="effect1_foregroundBlur_658_89"/>
</filter>
<filter id="filter8_f_658_89" x="30.5254" y="41.2383" width="32.2872" height="58.7989" filterUnits="userSpaceOnUse" color-interpolation-filters="sRGB">
<feFlood flood-opacity="0" result="BackgroundImageFix"/>
<feBlend mode="normal" in="SourceGraphic" in2="BackgroundImageFix" result="shape"/>
<feGaussianBlur stdDeviation="1.37501" result="effect1_foregroundBlur_658_89"/>
</filter>
<filter id="filter9_f_658_89" x="33.8038" y="54.6006" width="23.1034" height="44.6444" filterUnits="userSpaceOnUse" color-interpolation-filters="sRGB">
<feFlood flood-opacity="0" result="BackgroundImageFix"/>
<feBlend mode="normal" in="SourceGraphic" in2="BackgroundImageFix" result="shape"/>
<feGaussianBlur stdDeviation="1.0532" result="effect1_foregroundBlur_658_89"/>
</filter>
<filter id="filter10_f_658_89" x="163.084" y="33.8083" width="53.2858" height="40.5006" filterUnits="userSpaceOnUse" color-interpolation-filters="sRGB">
<feFlood flood-opacity="0" result="BackgroundImageFix"/>
<feBlend mode="normal" in="SourceGraphic" in2="BackgroundImageFix" result="shape"/>
<feGaussianBlur stdDeviation="0.585111" result="effect1_foregroundBlur_658_89"/>
</filter>
<filter id="filter11_f_658_89" x="73.537" y="18.539" width="101.192" height="66.6349" filterUnits="userSpaceOnUse" color-interpolation-filters="sRGB">
<feFlood flood-opacity="0" result="BackgroundImageFix"/>
<feBlend mode="normal" in="SourceGraphic" in2="BackgroundImageFix" result="shape"/>
<feGaussianBlur stdDeviation="2.04789" result="effect1_foregroundBlur_658_89"/>
</filter>
<filter id="filter12_f_658_89" x="144.769" y="22.7047" width="137.298" height="258.284" filterUnits="userSpaceOnUse" color-interpolation-filters="sRGB">
<feFlood flood-opacity="0" result="BackgroundImageFix"/>
<feBlend mode="normal" in="SourceGraphic" in2="BackgroundImageFix" result="shape"/>
<feGaussianBlur stdDeviation="8.86444" result="effect1_foregroundBlur_658_89"/>
</filter>
<linearGradient id="paint0_linear_658_89" x1="131.215" y1="40.3513" x2="279.868" y2="211.436" gradientUnits="userSpaceOnUse">
<stop stop-color="#59FAF6"/>
<stop offset="1" stop-color="#C665D9"/>
</linearGradient>
<linearGradient id="paint1_linear_658_89" x1="206.198" y1="-14.0841" x2="142.441" y2="315.402" gradientUnits="userSpaceOnUse">
<stop offset="0.0211509" stop-color="#FF97E5"/>
<stop offset="0.578643" stop-color="#FE4194"/>
<stop offset="0.996673" stop-color="#E8196B"/>
</linearGradient>
<linearGradient id="paint2_linear_658_89" x1="257.259" y1="6.9661" x2="304.027" y2="174.255" gradientUnits="userSpaceOnUse">
<stop stop-color="#FE9ECA" stop-opacity="0.89"/>
<stop offset="0.504166" stop-color="#FE9ECA"/>
<stop offset="1" stop-color="#FE9ECA" stop-opacity="0.13"/>
</linearGradient>
<linearGradient id="paint3_linear_658_89" x1="12.2972" y1="41.1133" x2="22.1611" y2="164.173" gradientUnits="userSpaceOnUse">
<stop stop-color="#329FE9"/>
<stop offset="1" stop-color="#5B78DC"/>
</linearGradient>
<linearGradient id="paint4_linear_658_89" x1="20.8613" y1="19.5352" x2="20.8613" y2="170.812" gradientUnits="userSpaceOnUse">
<stop stop-color="#329FE9"/>
<stop offset="1" stop-color="#A88AE4"/>
</linearGradient>
<linearGradient id="paint5_linear_658_89" x1="34.5905" y1="99.4109" x2="66.8203" y2="73.0648" gradientUnits="userSpaceOnUse">
<stop stop-color="white" stop-opacity="0.19"/>
<stop offset="1" stop-color="white" stop-opacity="0.29"/>
</linearGradient>
<linearGradient id="paint6_linear_658_89" x1="65.6702" y1="88.8305" x2="55.4449" y2="90.0777" gradientUnits="userSpaceOnUse">
<stop stop-color="white" stop-opacity="0.14"/>
<stop offset="1" stop-color="white" stop-opacity="0"/>
</linearGradient>
<linearGradient id="paint7_linear_658_89" x1="37.1371" y1="97.0839" x2="64.3895" y2="78.8725" gradientUnits="userSpaceOnUse">
<stop stop-color="white" stop-opacity="0.19"/>
<stop offset="1" stop-color="white" stop-opacity="0.29"/>
</linearGradient>
<linearGradient id="paint8_linear_658_89" x1="59.9252" y1="87.5942" x2="52.3912" y2="88.3454" gradientUnits="userSpaceOnUse">
<stop stop-color="white" stop-opacity="0.14"/>
<stop offset="1" stop-color="white" stop-opacity="0"/>
</linearGradient>
<linearGradient id="paint9_linear_658_89" x1="38.7475" y1="96.9893" x2="58.6997" y2="83.6562" gradientUnits="userSpaceOnUse">
<stop stop-color="white" stop-opacity="0.19"/>
<stop offset="1" stop-color="white" stop-opacity="0.29"/>
</linearGradient>
<linearGradient id="paint10_linear_658_89" x1="55.4312" y1="90.0416" x2="49.9154" y2="90.5916" gradientUnits="userSpaceOnUse">
<stop stop-color="white" stop-opacity="0.14"/>
<stop offset="1" stop-color="white" stop-opacity="0"/>
</linearGradient>
<linearGradient id="paint11_linear_658_89" x1="264.827" y1="57.2412" x2="276.288" y2="42.3942" gradientUnits="userSpaceOnUse">
<stop stop-color="white" stop-opacity="0"/>
<stop offset="1" stop-color="white" stop-opacity="0.37"/>
</linearGradient>
<linearGradient id="paint12_linear_658_89" x1="301.719" y1="82.6812" x2="281.462" y2="86.7256" gradientUnits="userSpaceOnUse">
<stop stop-color="white" stop-opacity="0.14"/>
<stop offset="1" stop-color="white" stop-opacity="0"/>
</linearGradient>
<linearGradient id="paint13_linear_658_89" x1="282.883" y1="32.707" x2="282.883" y2="96.1976" gradientUnits="userSpaceOnUse">
<stop stop-color="white" stop-opacity="0.23"/>
<stop offset="1" stop-color="white" stop-opacity="0.67"/>
</linearGradient>
<linearGradient id="paint14_linear_658_89" x1="207.804" y1="39.2185" x2="171.844" y2="71.2" gradientUnits="userSpaceOnUse">
<stop stop-color="white" stop-opacity="0"/>
<stop offset="0.48574" stop-color="white"/>
<stop offset="1" stop-color="white" stop-opacity="0.01"/>
</linearGradient>
<linearGradient id="paint15_linear_658_89" x1="82.6834" y1="33.0833" x2="168.729" y2="68.0298" gradientUnits="userSpaceOnUse">
<stop stop-color="white"/>
<stop offset="1" stop-color="white"/>
</linearGradient>
</defs>
</svg>
